<svg width="0" height="0" class="hidden">
  <symbol xmlns="http://www.w3.org/2000/svg" viewBox="0 0 40 41" id="fb">
    <path d="M38.1941 0.145386H1.59142C0.711165 0.145386 0 0.860386 0
    1.74539V38.5454C0 39.4304 0.711165 40.1454 1.59142 40.1454H38.1941C39.0743
    40.1454 39.7855 39.4304 39.7855 38.5454V1.74539C39.7855 0.860386 39.0743
    0.145386 38.1941 0.145386ZM33.5988 11.8204H30.421C27.9294 11.8204 27.447
    13.0104 27.447 14.7604V18.6154H33.3949L32.6191
    24.6504H27.447V40.1454H21.2454V24.6554H16.0584V18.6154H21.2454V14.1654C21.2454
    9.00039 24.3835 6.18539 28.9688 6.18539C31.1669 6.18539 33.0518 6.35039
    33.6038 6.42539V11.8204H33.5988Z"></path>
  </symbol>
  <symbol xmlns="http://www.w3.org/2000/svg" viewBox="0 0 40 41" id="git">
    <path d="M20.0003 0.145386C8.95586 0.145386 0 9.32591 0 20.6517C0 29.7119
    5.73062 37.3985 13.6772 40.1101C14.6766 40.2999 15.0441 39.6652 15.0441
    39.1236C15.0441 38.6348 15.0253 37.0192 15.0169 35.3057C9.4525 36.5464
    8.27844 32.8862 8.27844 32.8862C7.36898 30.5161 6.05781 29.8857 6.05781
    29.8857C4.24328 28.613 6.19492 28.6392 6.19492 28.6392C8.20273 28.7837
    9.26039 30.7525 9.26039 30.7525C11.0445 33.8873 13.9391 32.981 15.0809
    32.457C15.2601 31.1319 15.7782 30.227 16.3506 29.7149C11.908 29.1966 7.23828
    27.438 7.23828 19.5806C7.23828 17.3418 8.01969 15.5124 9.29922
    14.0764C9.09156 13.5598 8.40648 11.4742 9.49266 8.64944C9.49266 8.64944
    11.1726 8.09865 14.9942 10.7517C16.5894 10.2972 18.3003 10.0694 20.0002
    10.0615C21.6995 10.0694 23.4118 10.2972 25.0102 10.7517C28.828 8.09857
    30.5046 8.64944 30.5046 8.64944C31.5934 11.4742 30.9089 13.5598 30.7013
    14.0764C31.9834 15.5125 32.7597 17.3419 32.7597 19.5806C32.7597 27.4569
    28.0809 29.191 23.6273 29.6986C24.3446 30.335 24.9837 31.5829 24.9837
    33.496C24.9837 36.2398 24.9604 38.4481 24.9604 39.1235C24.9604 39.6693
    25.3206 40.3088 26.3343 40.1074C34.2766 37.3929 40 29.709 40 20.6517C40
    9.32591 31.0455 0.145386 20.0003 0.145386Z"></path>
  </symbol>
  <symbol xmlns="http://www.w3.org/2000/svg" viewBox="0 0 40 41" id="vk">
    <path d="M36.25 0.145386H3.75C1.6875 0.145386 0 1.83289 0 3.89539V36.3954C0
    38.4579 1.6875 40.1454 3.75 40.1454H36.25C38.3125 40.1454 40 38.4579 40
    36.3954V3.89539C40 1.83289 38.3125 0.145386 36.25 0.145386ZM32.3984
    28.1454L28.7422 28.2001C28.7422 28.2001 27.9531 28.3563 26.9219
    27.6454C25.5547 26.7079 24.2656 24.2626 23.2578 24.5829C22.2422 24.9032
    22.2734 27.0985 22.2734 27.0985C22.2734 27.0985 22.2812 27.5673 22.0469
    27.8173C21.7969 28.0907 21.2969 28.1454 21.2969 28.1454H19.6641C19.6641
    28.1454 16.0547 28.3641 12.875 25.0516C9.40625 21.4423 6.34375 14.2782
    6.34375 14.2782C6.34375 14.2782 6.16406 13.8094 6.35938 13.5829C6.57812
    13.3251 7.16406 13.3094 7.16406 13.3094L11.0781 13.286C11.0781 13.286
    11.4453 13.3485 11.7109 13.5438C11.9297 13.7001 12.0469 14.0048 12.0469
    14.0048C12.0469 14.0048 12.6797 15.6063 13.5156 17.0516C15.1484 19.8719
    15.9141 20.4891 16.4688 20.1923C17.2734 19.7548 17.0312 16.2001 17.0312
    16.2001C17.0312 16.2001 17.0469 14.911 16.625 14.3407C16.2969 13.8954
    15.6797 13.7626 15.4141 13.7313C15.1953 13.7001 15.5547 13.1923 16.0234
    12.9579C16.7266 12.6141 17.9688 12.5907 19.4375 12.6063C20.5781 12.6141
    20.9141 12.6923 21.3594 12.7938C22.7109 13.1219 22.25 14.3798 22.25
    17.3954C22.25 18.3641 22.0781 19.7235 22.7734 20.1688C23.0703 20.3641
    23.8047 20.2001 25.6406 17.0829C26.5078 15.6063 27.1641 13.8719 27.1641
    13.8719C27.1641 13.8719 27.3047 13.5594 27.5234 13.4266C27.75 13.2938
    28.0547 13.3329 28.0547 13.3329L32.1719 13.3094C32.1719 13.3094 33.4062
    13.161 33.6094 13.7235C33.8203 14.3094 33.1484 15.6766 31.4688
    17.9188C28.7109 21.5985 28.3984 21.2548 30.6953 23.3798C32.8828 25.411
    33.3359 26.4032 33.4141 26.5282C34.3047 28.0282 32.3984 28.1454 32.3984
    28.1454Z"></path>
  </symbol>
  <symbol xmlns="http://www.w3.org/2000/svg" viewBox="0 0 158 33" id="Incubator Logo">
    <path fill-rule="evenodd" clip-rule="evenodd" d="M8.79912 2.00042C2.66717
    6.35099 -1.56482 15.6466 0.552008 23.184C1.39561 26.1876 3.15058 28.7939
    6.00341 30.4529C13.6646 34.9079 23.9238 31.4523 26.3078 23.3679C28.5363
    15.8109 24.2465 6.38493 18.2622 2.15585C15.1328 -0.0558778 11.9241 -0.216806
    8.79912 2.00042ZM4.99342 16.6952V21.299H6.39729C7.03698 21.299 7.55715
    21.0843 7.9614 20.6544C8.36386 20.2263 8.56612 19.6721 8.56612
    18.9934C8.56612 18.3166 8.36386 17.7642 7.9614 17.3363C7.55715 16.9083
    7.03698 16.6952 6.39729 16.6952H4.99342ZM3.1078
    22.8601V15.1342H5.9345C6.74288 15.1342 7.36976 15.1963 7.81449
    15.3227C8.25922 15.4472 8.6691 15.6526 9.04185 15.941C9.52347 16.3126
    9.88737 16.7575 10.1355 17.2739C10.3836 17.7906 10.5067 18.3655 10.5067
    18.9934C10.5067 19.6834 10.3561 20.3073 10.0548 20.8692C9.75326 21.4309
    9.31596 21.8987 8.74621 22.2738C8.42279 22.4849 8.06619 22.6338 7.67461
    22.7244C7.2833 22.8148 6.70253 22.8601 5.9345 22.8601H3.1078ZM11.29
    22.8601V15.1342H16.3289V16.5595H13.1755V18.1319H16.1856V19.5684H13.1755V21.4122H16.4173V22.8601H11.29ZM20.4217
    22.9279L17.0033 15.1342H19.0214L20.8831 19.6249L22.8696
    15.1342H24.9097L21.2377 22.9279H20.4217Z"></path>
    <path d="M33.8816 24.5262V9.22525H37.5229V24.5262H33.8816ZM43.871
    14.9116V24.5262H40.3748V9.22525H43.4745L51.0502
    18.3469V9.22525H54.5469V24.5262H51.7779L43.871 14.9116ZM69.688
    23.242C68.8396 23.7684 67.9708 24.1564 67.0813 24.4141C66.1915 24.6679
    65.2569 24.7951 64.2813 24.7951C63.1779 24.7951 62.1606 24.6122 61.2365
    24.2497C60.3087 23.8842 59.4988 23.3465 58.8054 22.6407C58.0916 21.905
    57.5468 21.0425 57.1745 20.0607C56.7986 19.0749 56.6124 18.0183 56.6124
    16.887C56.6124 14.5086 57.3435 12.5932 58.8088 11.1369C60.2744 9.68456
    62.2089 8.9563 64.612 8.9563C65.4746 8.9563 66.3155 9.05709 67.1329
    9.26243C67.9539 9.46777 68.7639 9.78163 69.564 10.2035V13.7955C68.7843
    13.2464 67.9984 12.8357 67.2123 12.567C66.4227 12.2943 65.6361 12.1601
    64.8466 12.1601C63.4226 12.1601 62.2985 12.5782 61.4811 13.4183C60.6642
    14.2584 60.254 15.412 60.254 16.887C60.254 18.3172 60.6436 19.4596 61.4263
    20.3107C62.2053 21.1657 63.257 21.5913 64.5779 21.5913C65.4258 21.5913
    66.2776 21.4309 67.1329 21.1061C67.9878 20.7814 68.8396 20.2997 69.688
    19.665V23.242ZM85.0427 9.22525V17.9846C85.0427 20.1278 84.4565 21.7967
    83.2808 22.9953C82.1048 24.1941 80.4636 24.7951 78.3565 24.7951C76.2536
    24.7951 74.6152 24.1941 73.4394 22.9953C72.2639 21.7967 71.6777 20.1278
    71.6777 17.9846V9.22525H75.2362V17.8317C75.2362 19.0489 75.5049 19.9786
    76.0433 20.6243C76.5807 21.2702 77.3637 21.5913 78.3844 21.5913C79.4018
    21.5913 80.1773 21.2702 80.7087 20.628C81.2391 19.9898 81.5047 19.0562
    81.5047 17.8317V9.22525H85.0427ZM91.2908 21.7261H93.3392C94.2566 21.7261
    94.9079 21.5876 95.2978 21.3116C95.6871 21.0315 95.884 20.5724 95.884
    19.9337C95.884 19.2765 95.677 18.791 95.2634 18.4774C94.8495 18.1637 94.2013
    18.0073 93.3186 18.0073H91.2908V21.7261ZM93.1186 15.2738C93.7565 15.2738
    94.2321 15.1433 94.5462 14.8781C94.8601 14.6169 95.0151 14.2212 95.0151
    13.6872C95.0151 13.0972 94.8565 12.6564 94.5393 12.3692C94.2256 12.0815
    93.7495 11.9358 93.1186 11.9358H91.2908V15.2738H93.1186ZM87.7324
    24.5262V9.22525H92.946C94.8048 9.22525 96.2084 9.5536 97.1529
    10.2148C98.1016 10.8754 98.5736 11.8539 98.5736 13.1531C98.5736 13.829
    98.4149 14.4228 98.0946 14.9342C97.7735 15.4457 97.3046 15.8491 96.6944
    16.1476C97.6805 16.4836 98.4186 16.9804 98.9012 17.6411C99.3871 18.302
    99.6287 19.1348 99.6287 20.139C99.6287 21.6065 99.1631 22.7041 98.2357
    23.4321C97.3084 24.1602 95.9118 24.5262 94.0461 24.5262H87.7324ZM105.832
    18.9255H110.005L108.025 13.1009L105.832 18.9255ZM99.9149 24.5262L106.077
    9.22525H110.156L115.66 24.5262H111.911L110.901 21.5467H104.811L103.68
    24.5262H99.9149ZM118.939
    24.5262V12.0705H114.263V9.22525H127.339V12.0705H122.663V24.5262H118.939ZM131.808
    16.887C131.808 18.2498 132.187 19.3736 132.942 20.2508C133.701 21.1285
    134.666 21.5689 135.839 21.5689C137.014 21.5689 137.983 21.1285 138.742
    20.2508C139.497 19.3736 139.876 18.2498 139.876 16.887C139.876 15.5166
    139.497 14.3889 138.742 13.5079C137.983 12.6229 137.014 12.1823 135.839
    12.1823C134.666 12.1823 133.701 12.6229 132.942 13.5079C132.187 14.3889
    131.808 15.5166 131.808 16.887ZM128.166 16.887C128.166 15.7483 128.352
    14.6987 128.721 13.7319C129.093 12.7649 129.645 11.9024 130.38
    11.1444C131.094 10.4163 131.904 9.87097 132.811 9.51642C133.718 9.1579
    134.725 8.97875 135.839 8.97875C136.962 8.97875 137.98 9.15789 138.89
    9.52016C139.801 9.88242 140.611 10.4238 141.324 11.1444C142.052 11.9024
    142.604 12.7649 142.976 13.7319C143.352 14.6987 143.538 15.7483 143.538
    16.887C143.538 18.0183 143.352 19.0637 142.976 20.0307C142.604 20.998
    142.052 21.8528 141.324 22.5958C140.604 23.3238 139.787 23.873 138.873
    24.2423C137.962 24.6122 136.949 24.7951 135.839 24.7951C134.732 24.7951
    133.728 24.6122 132.821 24.2497C131.915 23.8842 131.101 23.3313 130.38
    22.5958C129.652 21.8528 129.1 20.998 128.728 20.0307C128.352 19.0637 128.166
    18.0183 128.166 16.887ZM150.928 15.4979C151.583 15.4979 152.069 15.3487
    152.39 15.0537C152.71 14.7586 152.869 14.3107 152.869 13.7057C152.869
    13.1306 152.703 12.6903 152.369 12.3876C152.035 12.0852 151.555 11.9358
    150.928 11.9358H149.228V15.4979H150.928ZM145.69
    24.5262V9.22525H150.907C152.825 9.22525 154.242 9.58751 155.159
    10.3081C156.072 11.0286 156.531 12.1488 156.531 13.6646C156.531 14.5086
    156.328 15.2329 155.924 15.8339C155.521 16.435 154.904 16.9429 154.069
    17.3574C154.421 17.4956 154.735 17.7271 155.014 18.0517C155.293 18.3766
    155.535 18.7872 155.745 19.284L158 24.5262H154.01L152.21 20.1166C151.921
    19.4145 151.59 18.9332 151.221 18.6717C150.849 18.4065 150.324 18.2758
    149.642 18.2758C149.59 18.2758 149.518 18.2795 149.431 18.287C149.342
    18.2945 149.276 18.2982 149.228 18.2982V24.5262H145.69Z"></path>
  </symbol>
</svg>